# xmcd CD database file
#
# Track frame offsets:
#	150
#	18159
#	65648
#	90257
#	114751
#	143871
#	176329
#	193912
#	216347
#
# Disc length: 3430 seconds
#
# Revision: 1
# Processed by: cddbd v1.4b41PL3 Copyright (c) Steve Scherf et al.
# Submitted via: CDex 1.40Beta4
#
DISCID=750d6409
DTITLE=Mean Town Blues Band - Live in Amsterdam
DYEAR=1998
DGENRE=Blues
TTITLE0=Mudcat
TTITLE1=Ramblin' on my mind
TTITLE2=Howlin'  for my darling
TTITLE3=Further up on the road
TTITLE4=Champagne And reefer
TTITLE5=Baby what do you want me to do
TTITLE6=Woke up this morning
TTITLE7=The thrill is gone
TTITLE8=Meantown Blues
EXTD=YEAR: 1998 ID3G:   0
EXTT0=
EXTT1=
EXTT2=
EXTT3=
EXTT4=
EXTT5=
EXTT6=
EXTT7=
EXTT8=
PLAYORDER=
